<?xml version="1.0" encoding="utf-8"?>
<!-- Generator: Adobe Illustrator 19.1.0, SVG Export Plug-In . SVG Version: 6.00 Build 0)  -->
<svg version="1.1" xmlns="http://www.w3.org/2000/svg" xmlns:xlink="http://www.w3.org/1999/xlink" x="0px" y="0px" width="24px"
	 height="24px" viewBox="0 0 24 24" enable-background="new 0 0 24 24" xml:space="preserve">
<g id="Bounding_Boxes">
	<g id="ui_x5F_spec_x5F_header_copy_3" display="none">
	</g>
	<path fill="none" d="M0,0h24v24H0V0z"/>
</g>
<g id="Duotone">
	<g id="ui_x5F_spec_x5F_header_copy_2" display="none">
	</g>
	<g>
		<path fill="#357edd" d="M12,4c-4.41,0-8,3.59-8,8c0,4.41,3.59,8,8,8s8-3.59,8-8C20,7.59,16.41,4,12,4z M17,13H7v-2h10V13z"/>
		<rect x="7" y="11" width="10" height="2"/>
		<path d="M12,2C6.48,2,2,6.48,2,12c0,5.52,4.48,10,10,10s10-4.48,10-10C22,6.48,17.52,2,12,2z M12,20c-4.41,0-8-3.59-8-8
			c0-4.41,3.59-8,8-8s8,3.59,8,8C20,16.41,16.41,20,12,20z"/>
	</g>
</g>
</svg>
